<?xml version="1.0" encoding="UTF-8" standalone="no"?>
<svg
   xmlns:dc="http://purl.org/dc/elements/1.1/"
   xmlns:cc="http://creativecommons.org/ns#"
   xmlns:rdf="http://www.w3.org/1999/02/22-rdf-syntax-ns#"
   xmlns:svg="http://www.w3.org/2000/svg"
   xmlns="http://www.w3.org/2000/svg"
   id="svg2"
   height="1076.5305"
   width="905.99176"
   version="1.1">
  <metadata
     id="metadata18">
    <rdf:RDF>
      <cc:Work
         rdf:about="">
        <dc:format>image/svg+xml</dc:format>
        <dc:type
           rdf:resource="http://purl.org/dc/dcmitype/StillImage" />
        <dc:title></dc:title>
      </cc:Work>
    </rdf:RDF>
  </metadata>
  <defs
     id="defs4" />
  <path
     id="path4215-4"
     d="m 452.99587,30.000009 c -277.53569,0 -412.522783,10.182275 -412.522783,10.182275 C 38.233189,184.89345 28.180809,305.84261 30.288648,450.5492 32.319425,589.97051 39.056092,698.78722 99.988395,783.85962 173.38731,886.33794 295.70163,973.87335 452.99587,1046.5305 610.29011,973.87335 732.55141,886.33794 805.95031,783.85962 c 60.93248,-85.0724 67.72202,-193.88911 69.7528,-333.31042 2.10784,-144.70659 -7.94454,-265.65575 -10.18444,-410.366916 0,0 -134.98701,-10.182275 -412.5228,-10.182275 z m 0,142.256861 c 184.596,0 274.37979,7.33178 274.37979,7.33178 1.48981,104.20576 8.1751,184.51408 6.77304,288.71655 -1.3508,100.39658 -5.86595,178.75248 -46.39356,240.01268 C 638.93569,782.11199 557.61619,848.53962 452.99587,900.85967 348.37555,848.53962 267.02285,782.11199 218.20342,708.31788 177.67581,647.05768 173.1938,568.70178 171.84301,468.3052 c -1.40189,-104.20247 5.28657,-184.51079 6.77638,-288.71655 0,0 89.78065,-7.33178 274.37648,-7.33178 z"
     style="display:inline;fill:#000000;stroke:none;stroke-width:1.5;stroke-miterlimit:4;stroke-dasharray:none" />
</svg>
